<svg xmlns="http://www.w3.org/2000/svg" width="214" height="217" viewBox="0 0 214 217">
<g>
<path d="M 57.00 65.03 C57.00,67.74 55.53,67.50 53.08,64.38 L 51.02 61.76 L 39.21 63.88 C38.76,63.96 38.32,64.04 37.90,64.12 C29.78,65.57 26.82,66.11 26.66,65.66 C26.57,65.41 27.41,64.83 28.74,63.92 C28.86,63.84 28.98,63.75 29.11,63.66 C47.65,50.87 64.08,39.61 77.00,30.85 C85.53,25.07 95.17,18.49 98.43,16.22 C101.77,13.91 104.89,12.41 105.57,12.80 C107.00,13.62 128.49,32.77 135.93,39.85 C143.28,46.84 158.45,60.56 159.12,60.82 C160.14,61.22 155.99,67.00 154.69,67.00 C154.18,67.00 154.31,66.33 154.99,65.51 C155.67,64.69 155.96,63.33 155.63,62.48 C155.57,62.33 155.55,62.20 155.49,62.08 C154.96,60.90 151.66,60.97 90.14,62.34 C87.30,62.40 84.34,62.46 81.25,62.53 C57.99,63.05 57.00,63.15 57.00,65.03 ZM 107.27 148.00 C106.33,149.10 105.31,150.00 105.00,150.00 C104.69,150.00 103.67,149.10 102.73,148.00 C101.06,146.05 101.12,146.00 105.00,146.00 C108.88,146.00 108.94,146.05 107.27,148.00 ZM 93.35 66.95 C94.08,67.68 92.17,67.95 86.95,67.83 C81.80,67.70 80.88,67.53 83.95,67.26 C87.12,66.98 87.98,66.60 86.95,65.96 C85.97,65.34 86.59,65.18 88.90,65.47 C90.76,65.70 92.77,66.37 93.35,66.95 Z" fill="rgb(10,65,55)"/>
<path d="M 0.00 0.00 L 214.00 0.00 L 214.00 217.00 L 0.00 217.00 ZM 85.84 190.17 C96.10,196.58 104.68,201.87 104.89,201.92 C105.10,201.96 107.35,200.71 109.89,199.13 C139.38,180.80 167.89,163.23 169.05,162.67 C169.85,162.29 171.66,161.20 173.08,160.24 C174.51,159.28 178.22,156.99 181.34,155.15 C185.14,152.91 187.22,150.97 187.65,149.27 C188.00,147.87 187.99,141.50 187.63,135.11 C187.27,128.73 186.31,110.71 185.48,95.08 C184.66,79.44 183.86,66.53 183.71,66.37 C183.55,66.22 178.06,65.13 171.49,63.96 L 159.56 61.82 L 157.84 63.97 C158.88,62.51 159.62,61.02 159.12,60.82 C158.45,60.56 143.28,46.84 135.93,39.85 C128.49,32.77 107.00,13.62 105.57,12.80 C104.89,12.41 101.77,13.91 98.43,16.22 C95.17,18.49 85.53,25.07 77.00,30.85 C64.08,39.61 47.65,50.87 29.11,63.66 C28.98,63.75 28.86,63.84 28.74,63.92 C27.41,64.83 26.57,65.41 26.66,65.66 C26.82,66.11 29.78,65.57 37.90,64.12 L 38.33 64.04 C31.79,65.22 26.44,66.24 26.35,66.33 C26.27,66.42 25.27,84.87 24.12,107.32 C22.31,142.95 22.23,148.42 23.48,150.32 C24.27,151.52 34.43,158.35 46.05,165.50 C57.68,172.65 75.58,183.75 85.84,190.17 ZM 57.00 65.03 C57.00,63.15 57.99,63.05 81.25,62.53 C84.34,62.46 87.30,62.40 90.14,62.34 C151.66,60.97 154.96,60.90 155.49,62.08 C155.55,62.20 155.57,62.33 155.63,62.48 C155.96,63.33 155.67,64.69 154.99,65.51 C154.31,66.33 154.18,67.00 154.69,67.00 C155.10,67.00 155.80,66.42 156.53,65.61 L 155.03 67.50 L 93.25 67.50 C93.55,67.36 93.58,67.18 93.35,66.95 C92.77,66.37 90.76,65.70 88.90,65.47 C86.59,65.18 85.97,65.34 86.95,65.96 C87.98,66.60 87.12,66.98 83.95,67.26 C82.92,67.35 82.34,67.43 82.22,67.50 L 55.83 67.50 L 54.55 66.01 C56.11,67.46 57.00,67.15 57.00,65.03 ZM 52.45 63.58 L 50.91 61.78 L 51.02 61.76 Z" fill="rgb(17,18,18)"/>
<path d="M 85.84 190.17 C79.43,186.16 70.03,180.32 61.05,174.75 C70.03,180.32 79.43,186.16 85.84,190.17 C96.10,196.58 104.98,201.69 105.58,201.51 C106.17,201.34 111.75,198.00 117.98,194.10 C125.16,189.60 128.52,187.00 127.13,187.00 C124.98,187.00 115.19,193.11 113.77,195.34 C113.36,195.98 113.02,196.13 113.02,195.68 C113.01,195.23 112.29,195.56 111.43,196.43 C109.22,198.63 106.15,198.34 101.50,195.47 C99.30,194.12 96.57,193.01 95.44,193.01 C94.30,193.00 92.10,191.67 90.55,190.05 C88.99,188.43 86.32,186.80 84.61,186.44 C82.90,186.08 80.07,184.71 78.32,183.39 C76.57,182.08 74.83,181.00 74.46,181.00 C74.09,181.00 72.45,179.88 70.82,178.50 C69.18,177.12 67.24,176.00 66.50,176.00 C65.75,176.00 64.32,174.99 63.32,173.75 C62.32,172.51 60.41,171.35 59.07,171.16 C57.73,170.97 55.79,169.73 54.75,168.41 C53.71,167.08 51.87,166.00 50.66,166.00 C49.45,166.00 46.70,164.54 44.55,162.75 C42.40,160.96 38.61,158.38 36.13,157.00 C33.03,155.28 31.39,153.61 30.87,151.67 C30.27,149.37 30.41,148.95 31.65,149.42 C32.48,149.74 35.94,150.07 39.33,150.16 L 45.50 150.33 L 40.00 151.00 C33.10,151.85 36.29,152.14 51.00,152.01 C59.84,151.93 62.96,152.26 64.50,153.42 C66.10,154.63 69.86,154.94 83.10,154.97 C101.71,155.00 114.55,154.03 109.50,152.96 C107.85,152.61 112.91,152.54 120.75,152.81 C130.70,153.15 135.00,152.97 135.00,152.20 C135.00,151.43 140.25,151.26 152.75,151.62 C173.31,152.21 175.25,152.47 174.82,154.65 C174.47,156.41 159.75,167.00 157.67,167.00 C156.94,167.00 155.29,168.12 154.00,169.50 C152.71,170.88 151.23,172.00 150.72,172.00 C150.21,172.00 148.45,173.12 146.82,174.50 C145.18,175.88 143.27,177.00 142.57,177.00 C141.87,177.00 140.19,178.01 138.85,179.25 C137.51,180.49 135.31,182.30 133.96,183.28 L 131.50 185.06 L 134.00 183.86 C135.38,183.20 143.48,178.33 152.00,173.03 C160.52,167.73 168.18,163.08 169.00,162.69 C169.82,162.30 171.66,161.20 173.08,160.24 C171.66,161.20 169.85,162.29 169.05,162.67 C167.89,163.23 139.38,180.80 109.89,199.13 C107.35,200.71 105.10,201.96 104.89,201.92 C104.68,201.87 96.10,196.58 85.84,190.17 ZM 104.79 149.93 C103.07,149.46 100.02,146.78 100.50,146.00 C100.80,145.52 98.62,141.15 95.68,136.29 C89.29,125.76 85.42,119.05 82.35,113.16 L 80.08 108.82 L 82.54 106.17 C83.89,104.71 85.00,103.07 85.01,102.51 C85.01,101.95 86.81,98.67 89.01,95.21 C91.20,91.75 93.00,88.73 93.00,88.49 C93.00,88.25 95.28,84.20 98.07,79.47 C104.34,68.86 105.60,68.71 111.05,78.00 C121.20,95.30 123.74,99.53 126.75,104.18 C128.54,106.94 130.00,109.63 130.00,110.16 C130.00,111.26 115.03,136.84 111.44,141.87 C110.12,143.73 109.28,145.64 109.58,146.12 C109.87,146.61 109.46,147.00 108.67,147.00 C108.44,147.00 108.20,147.06 107.96,147.16 C108.81,146.03 108.22,146.00 105.00,146.00 C101.12,146.00 101.06,146.05 102.73,148.00 C103.52,148.92 104.36,149.70 104.79,149.93 ZM 106.48 148.86 C106.14,149.51 105.63,150.00 105.25,150.00 C105.20,150.00 105.14,150.00 105.07,149.99 C105.33,149.91 105.87,149.47 106.48,148.86 Z" fill="rgb(20,138,118)"/>
<path d="M 23.08 149.40 C24.07,149.72 26.33,149.92 28.80,149.89 C29.22,149.88 29.80,149.89 30.53,149.90 C30.54,150.29 30.66,150.86 30.87,151.67 C31.39,153.61 33.03,155.28 36.13,157.00 C38.61,158.38 42.40,160.96 44.55,162.75 C46.70,164.54 49.45,166.00 50.66,166.00 C51.87,166.00 53.71,167.08 54.75,168.41 C55.79,169.73 57.73,170.97 59.07,171.16 C60.41,171.35 62.32,172.51 63.32,173.75 C64.32,174.99 65.75,176.00 66.50,176.00 C67.24,176.00 69.18,177.12 70.82,178.50 C72.45,179.88 74.09,181.00 74.46,181.00 C74.83,181.00 76.57,182.08 78.32,183.39 C80.07,184.71 82.90,186.08 84.61,186.44 C86.32,186.80 88.99,188.43 90.55,190.05 C92.10,191.67 94.30,193.00 95.44,193.01 C96.57,193.01 99.30,194.12 101.50,195.47 C106.15,198.34 109.22,198.63 111.43,196.43 C112.29,195.56 113.01,195.23 113.02,195.68 C113.02,196.13 113.36,195.98 113.77,195.34 C115.19,193.11 124.98,187.00 127.13,187.00 C128.52,187.00 125.16,189.60 117.98,194.10 C111.75,198.00 106.17,201.34 105.58,201.51 C104.98,201.69 96.10,196.58 85.84,190.17 C79.50,186.20 70.23,180.44 61.32,174.93 L 61.05 174.75 C55.66,171.42 50.41,168.18 46.05,165.50 C34.43,158.35 24.27,151.52 23.48,150.32 C23.33,150.08 23.19,149.79 23.08,149.40 ZM 107.27 148.00 C107.55,147.67 107.79,147.39 107.96,147.16 C108.20,147.06 108.44,147.00 108.67,147.00 C109.46,147.00 109.87,146.61 109.58,146.12 C109.87,146.61 109.71,147.00 109.22,147.00 C108.73,147.00 107.82,148.10 107.21,149.44 C106.13,151.80 106.24,151.90 110.30,152.27 C112.85,152.50 115.79,152.66 118.74,152.75 C112.07,152.56 108.00,152.64 109.50,152.96 C114.55,154.03 101.71,155.00 83.10,154.97 C69.86,154.94 66.10,154.63 64.50,153.42 C62.96,152.26 59.84,151.93 51.00,152.01 C36.29,152.14 33.10,151.85 40.00,151.00 L 45.15 150.37 C48.91,150.52 52.97,150.70 57.00,150.89 C84.11,152.20 104.00,152.31 104.00,151.15 C104.00,150.69 103.11,149.51 102.02,148.52 C101.33,147.89 100.80,147.18 100.59,146.64 C101.16,147.74 103.41,149.55 104.79,149.93 C104.88,149.98 104.95,150.00 105.00,150.00 C105.02,150.00 105.05,150.00 105.07,149.99 C105.14,150.00 105.20,150.00 105.25,150.00 C105.63,150.00 106.14,149.51 106.48,148.86 C106.73,148.60 107.00,148.31 107.27,148.00 ZM 181.34 155.15 C178.22,156.99 174.51,159.28 173.08,160.24 C171.66,161.20 169.82,162.30 169.00,162.69 C168.18,163.08 160.52,167.73 152.00,173.03 C143.48,178.33 135.38,183.20 134.00,183.86 L 131.50 185.06 L 133.96 183.28 C135.31,182.30 137.51,180.49 138.85,179.25 C140.19,178.01 141.87,177.00 142.57,177.00 C143.27,177.00 145.18,175.88 146.82,174.50 C148.45,173.12 150.21,172.00 150.72,172.00 C151.23,172.00 152.71,170.88 154.00,169.50 C155.29,168.12 156.94,167.00 157.67,167.00 C159.75,167.00 174.47,156.41 174.82,154.65 C175.25,152.47 173.31,152.21 152.75,151.62 C140.25,151.26 135.00,151.43 135.00,152.20 C135.00,152.97 130.70,153.15 120.75,152.81 C120.16,152.79 119.59,152.77 119.04,152.75 C127.06,152.98 135.00,152.69 135.00,151.98 C135.00,151.35 139.00,151.05 145.75,151.19 C151.66,151.32 163.48,151.14 172.00,150.79 L 187.27 150.18 C186.44,151.65 184.48,153.30 181.34,155.15 ZM 187.49 149.73 L 187.35 138.33 C187.29,133.19 186.73,119.81 186.06,105.96 C186.72,118.31 187.36,130.18 187.63,135.11 C187.99,141.50 188.00,147.87 187.65,149.27 C187.61,149.42 187.56,149.57 187.49,149.73 ZM 111.97 79.56 C111.67,79.05 111.36,78.53 111.05,78.00 C106.40,70.07 104.80,69.01 100.52,75.50 C102.89,71.72 104.78,69.00 105.14,69.00 C105.51,69.00 107.85,72.49 110.33,76.75 C110.89,77.72 111.44,78.65 111.97,79.56 ZM 24.19 106.10 C23.51,120.84 22.88,135.86 22.64,143.66 C22.63,137.99 23.10,127.49 24.12,107.32 C24.14,106.91 24.16,106.50 24.19,106.10 ZM 93.22 88.00 C93.08,88.28 93.00,88.45 93.00,88.49 C93.00,88.73 91.20,91.75 89.01,95.21 C90.35,92.98 92.03,90.11 93.22,88.00 ZM 37.14 150.07 C38.32,150.11 39.58,150.16 40.91,150.20 L 39.33 150.16 C38.60,150.14 37.86,150.11 37.14,150.07 ZM 122.44 97.27 C124.16,100.10 125.54,102.31 126.75,104.18 C125.44,102.16 124.23,100.23 122.44,97.27 ZM 183.71 66.37 C183.54,66.24 179.88,65.50 174.99,64.59 C179.90,65.50 183.58,66.25 183.71,66.37 ZM 85.00 102.60 C85.00,102.58 85.00,102.56 85.01,102.54 C85.01,102.56 85.00,102.58 85.00,102.60 Z" fill="rgb(27,128,110)"/>
<path d="M 187.49 149.73 C187.43,149.87 187.36,150.03 187.27,150.18 L 172.00 150.79 C163.48,151.14 151.66,151.32 145.75,151.19 C139.00,151.05 135.00,151.35 135.00,151.98 C135.00,152.69 127.06,152.98 119.04,152.75 C118.94,152.75 118.84,152.75 118.74,152.75 L 118.74 152.75 C115.79,152.66 112.85,152.50 110.30,152.27 C106.24,151.90 106.13,151.80 107.21,149.44 C107.82,148.10 108.73,147.00 109.22,147.00 C109.71,147.00 109.87,146.61 109.58,146.12 C109.28,145.64 110.12,143.73 111.44,141.87 C114.43,137.68 125.28,119.28 128.85,112.58 C127.17,115.76 123.82,121.73 119.99,128.31 L 109.98 145.50 L 140.74 146.12 C158.38,146.48 173.21,147.22 175.50,147.87 C177.70,148.48 181.48,148.99 183.90,148.99 L 187.49 149.00 ZM 37.14 150.07 C34.56,149.93 32.30,149.67 31.65,149.42 C30.85,149.11 30.50,149.18 30.53,149.90 C29.80,149.89 29.22,149.88 28.80,149.89 C27.65,149.91 26.54,149.87 25.59,149.79 C26.00,149.78 26.43,149.74 26.87,149.68 C47.16,146.82 57.93,146.04 77.25,146.02 C89.21,146.01 99.00,145.64 99.00,145.19 C99.00,144.40 92.62,131.74 88.62,124.45 C90.59,127.84 92.89,131.70 95.68,136.29 C98.62,141.15 100.80,145.52 100.50,146.00 C100.41,146.15 100.45,146.38 100.59,146.64 C100.80,147.18 101.33,147.89 102.02,148.52 C103.11,149.51 104.00,150.69 104.00,151.15 C104.00,152.31 84.11,152.20 57.00,150.89 C52.97,150.70 48.91,150.52 45.15,150.37 L 45.50 150.33 L 40.91 150.20 L 40.91 150.20 C39.58,150.16 38.32,150.11 37.14,150.07 ZM 90.80 67.83 C92.07,67.78 92.87,67.67 93.25,67.50 L 133.48 67.50 L 128.48 67.62 C116.37,67.92 102.98,67.97 90.80,67.83 ZM 52.45 63.58 L 53.08 64.38 C53.62,65.06 54.11,65.61 54.55,66.01 L 54.98 66.52 C52.17,66.23 50.77,65.91 51.23,65.57 C52.21,64.86 52.52,63.97 52.10,63.16 ZM 51.72 62.73 C50.71,62.03 47.83,62.34 38.96,63.93 L 39.21 63.88 L 50.91 61.78 ZM 74.03 67.50 L 82.22 67.50 C82.06,67.59 82.65,67.67 84.01,67.73 C80.51,67.67 77.16,67.59 74.03,67.50 ZM 24.16 106.75 C23.46,122.11 22.84,137.66 22.65,144.95 C22.64,144.55 22.64,144.12 22.64,143.66 C22.87,135.97 23.49,121.28 24.16,106.75 ZM 185.22 90.25 C184.79,82.42 184.43,76.33 184.17,72.27 C184.46,76.60 184.83,82.98 185.22,90.25 ZM 82.87 114.15 C82.68,113.80 82.51,113.47 82.35,113.16 L 80.08 108.82 L 82.35 113.16 C82.52,113.49 82.69,113.82 82.87,114.15 ZM 129.98 110.25 C129.99,110.21 130.00,110.18 130.00,110.16 L 130.00 110.16 C130.00,110.18 129.99,110.21 129.98,110.25 Z" fill="rgb(45,169,149)"/>
<path d="M 23.08 149.40 C22.92,148.86 22.81,148.12 22.73,147.06 L 29.82 126.18 C34.17,113.36 38.61,101.66 39.70,100.18 C42.05,97.00 46.00,85.98 46.00,82.62 C46.00,81.31 46.65,79.71 47.44,79.05 C48.23,78.40 49.18,76.45 49.56,74.71 C51.32,66.72 54.55,65.99 58.35,72.75 C59.82,75.36 62.36,79.75 64.00,82.50 C65.63,85.25 69.33,91.70 72.21,96.83 C77.37,106.03 79.51,108.54 81.79,106.98 L 80.08 108.82 L 82.35 113.16 C82.51,113.47 82.68,113.80 82.87,114.15 L 82.87 114.15 C84.48,117.20 86.32,120.50 88.62,124.45 C92.62,131.74 99.00,144.40 99.00,145.19 C99.00,145.64 89.21,146.01 77.25,146.02 C57.93,146.04 47.16,146.82 26.87,149.68 C26.43,149.74 26.00,149.78 25.59,149.79 C24.50,149.71 23.61,149.57 23.08,149.40 ZM 185.22 90.25 C185.31,91.82 185.40,93.43 185.48,95.08 C185.67,98.64 185.87,102.32 186.06,105.96 C186.73,119.81 187.29,133.19 187.35,138.33 L 187.49 149.00 L 183.90 148.99 C181.48,148.99 177.70,148.48 175.50,147.87 C173.21,147.22 158.38,146.48 140.74,146.12 L 109.98 145.50 L 119.99 128.31 C123.82,121.73 127.17,115.76 128.85,112.58 C129.49,111.38 129.90,110.56 129.98,110.25 C129.99,110.21 130.00,110.18 130.00,110.16 L 130.00 110.16 L 130.00 110.16 C130.00,109.78 129.24,108.28 128.15,106.44 C128.34,106.68 128.50,106.87 128.63,107.00 C130.21,108.58 130.75,108.18 134.81,102.37 C135.52,101.34 135.19,102.21 134.06,104.31 C131.56,108.92 131.52,109.81 133.68,112.20 C135.21,113.89 139.23,120.44 146.61,133.29 C149.36,138.08 151.51,138.98 153.08,136.00 C155.58,131.28 162.96,112.97 163.56,110.00 C164.56,105.07 167.06,100.11 170.09,97.07 C171.51,95.65 173.68,91.78 174.90,88.49 C177.77,80.78 182.19,72.00 183.21,72.00 C183.60,72.00 183.92,70.92 183.99,69.51 C184.04,70.30 184.11,71.22 184.17,72.27 L 184.17 72.27 C184.44,76.34 184.79,82.42 185.22,90.25 ZM 57.46 77.93 C58.44,79.52 60.02,78.22 59.32,76.40 C58.94,75.40 58.39,75.21 57.75,75.85 C57.22,76.38 57.08,77.32 57.46,77.93 ZM 156.00 80.00 C156.00,80.55 155.55,81.00 155.00,81.00 C154.45,81.00 154.00,80.55 154.00,80.00 C154.00,79.45 154.45,79.00 155.00,79.00 C155.55,79.00 156.00,79.45 156.00,80.00 ZM 24.19 106.10 C25.14,87.39 25.99,71.69 26.26,67.45 C26.02,71.25 25.34,84.24 24.59,99.50 C24.26,106.20 23.93,112.97 23.62,119.08 C23.79,115.07 23.97,110.90 24.16,106.75 C24.17,106.53 24.18,106.32 24.19,106.10 ZM 111.97 79.56 L 111.97 79.56 C111.87,79.39 111.77,79.22 111.67,79.05 C113.72,82.52 116.00,86.35 117.29,88.50 C118.62,90.70 120.73,94.30 122.49,97.34 L 122.44 97.27 C120.23,93.61 117.16,88.40 111.97,79.56 ZM 105.13 69.00 C104.74,69.05 102.87,71.75 100.52,75.50 L 100.51 75.51 C102.88,71.73 104.76,69.00 105.12,69.00 C105.12,69.00 105.12,69.00 105.13,69.00 ZM 85.00 102.60 C84.98,102.72 84.92,102.88 84.83,103.07 C84.92,102.88 84.96,102.72 84.97,102.61 C84.97,102.53 85.01,102.39 85.09,102.20 C85.04,102.34 85.01,102.44 85.01,102.51 C85.01,102.52 85.01,102.53 85.01,102.54 C85.00,102.56 85.00,102.58 85.00,102.60 ZM 26.35 66.33 C26.44,66.24 31.79,65.22 38.33,64.04 C31.77,65.22 26.43,66.24 26.35,66.33 C26.35,66.34 26.34,66.42 26.32,66.58 C26.34,66.42 26.35,66.34 26.35,66.33 Z" fill="rgb(55,195,171)"/>
<path d="M 183.71 66.37 C183.75,66.44 183.85,67.56 183.99,69.51 C183.92,70.92 183.60,72.00 183.21,72.00 C182.19,72.00 177.77,80.78 174.90,88.49 C173.68,91.78 171.51,95.65 170.09,97.07 C167.06,100.11 164.56,105.07 163.56,110.00 C162.96,112.97 155.58,131.28 153.08,136.00 C151.51,138.98 149.36,138.08 146.61,133.29 C139.23,120.44 135.21,113.89 133.68,112.20 C131.52,109.81 131.56,108.92 134.06,104.31 C135.19,102.21 135.52,101.34 134.81,102.37 C133.51,104.23 132.57,105.53 131.84,106.40 C133.03,104.90 134.89,102.15 138.00,97.38 C139.66,94.85 155.00,68.07 155.00,67.72 C155.00,67.64 145.83,67.57 132.05,67.54 L 133.48 67.50 L 155.03 67.50 L 156.53 65.61 C156.65,65.48 156.78,65.34 156.90,65.19 C156.00,66.90 156.45,66.99 162.71,66.90 C166.45,66.85 171.98,66.50 175.00,66.14 L 179.97 65.54 C182.19,65.98 183.61,66.29 183.71,66.37 ZM 39.50 66.13 C46.37,66.38 50.23,66.10 51.71,65.15 C51.58,65.30 51.41,65.44 51.23,65.57 C50.77,65.91 52.17,66.23 54.98,66.52 L 55.83 67.50 L 55.21 67.50 L 56.97 70.58 C53.77,66.28 51.10,67.71 49.56,74.71 C49.18,76.45 48.23,78.40 47.44,79.05 C46.65,79.71 46.00,81.31 46.00,82.62 C46.00,85.98 42.05,97.00 39.70,100.18 C38.61,101.66 34.17,113.36 29.82,126.18 L 22.73 147.06 C22.69,146.47 22.66,145.77 22.65,144.95 C22.79,139.63 23.16,129.92 23.62,119.08 C23.93,112.97 24.26,106.20 24.59,99.50 C25.34,84.24 26.02,71.26 26.26,67.46 L 26.26 67.45 C26.29,67.06 26.31,66.77 26.32,66.58 C26.34,66.42 26.35,66.34 26.35,66.33 C26.43,66.24 31.77,65.22 38.33,64.04 C38.54,64.00 38.75,63.96 38.96,63.93 L 38.96 63.93 C39.25,63.87 39.53,63.82 39.80,63.78 C39.54,63.83 39.27,63.88 39.00,63.93 L 29.50 65.76 ZM 57.46 77.93 C57.08,77.32 57.22,76.38 57.75,75.85 C58.39,75.21 58.94,75.40 59.32,76.40 C60.02,78.22 58.44,79.52 57.46,77.93 ZM 156.00 80.00 C156.00,79.45 155.55,79.00 155.00,79.00 C154.45,79.00 154.00,79.45 154.00,80.00 C154.00,80.55 154.45,81.00 155.00,81.00 C155.55,81.00 156.00,80.55 156.00,80.00 ZM 170.02 63.69 C164.60,62.78 159.78,62.26 159.01,62.51 L 159.56 61.82 ZM 72.09 96.63 C74.22,100.32 76.34,103.67 77.66,105.46 C76.27,103.80 74.55,101.00 72.21,96.83 C72.17,96.77 72.13,96.70 72.09,96.63 ZM 61.08 77.52 C61.68,78.36 62.17,79.16 67.04,87.74 C65.80,85.57 64.70,83.69 64.00,82.50 C63.17,81.11 62.11,79.31 61.08,77.52 ZM 129.21 107.51 C129.03,107.38 128.84,107.21 128.63,107.00 C128.50,106.87 128.34,106.68 128.15,106.44 C128.05,106.26 127.94,106.08 127.83,105.90 C128.34,106.59 128.82,107.14 129.21,107.51 ZM 84.62 103.46 C84.83,103.09 84.96,102.79 84.97,102.61 C84.96,102.72 84.92,102.88 84.83,103.07 C84.78,103.19 84.71,103.32 84.62,103.46 ZM 111.82 79.30 L 111.67 79.05 C111.23,78.30 110.79,77.54 110.33,76.75 C110.82,77.59 111.31,78.44 111.82,79.30 ZM 122.65 97.61 C122.59,97.52 122.54,97.43 122.49,97.34 L 122.43 97.25 C122.50,97.37 122.58,97.49 122.65,97.61 Z" fill="rgb(84,201,182)"/>
<path d="M 78.75 106.75 C77.85,106.06 74.57,101.00 71.45,95.50 C62.33,79.43 61.82,78.55 61.07,77.50 C60.67,76.95 59.19,74.47 57.78,72.00 L 55.21 67.50 L 105.10 67.50 C132.55,67.50 155.00,67.60 155.00,67.72 C155.00,68.07 139.66,94.85 138.00,97.38 C132.40,105.96 130.86,108.00 129.97,108.00 C129.41,108.00 127.73,105.99 126.23,103.53 C122.56,97.54 115.83,86.20 110.33,76.75 C107.85,72.49 105.51,69.00 105.14,69.00 C104.45,69.00 98.29,78.75 93.77,87.00 C92.41,89.47 89.89,93.80 88.15,96.61 C86.42,99.42 84.99,102.12 84.97,102.61 C84.93,103.54 81.47,108.00 80.78,108.00 C80.56,108.00 79.65,107.44 78.75,106.75 ZM 39.50 66.13 L 29.50 65.76 L 39.00 63.93 C50.59,61.70 51.65,61.65 52.29,63.32 C53.21,65.72 49.63,66.50 39.50,66.13 ZM 156.97 65.06 C157.54,63.99 158.43,62.85 158.94,62.54 C159.45,62.22 164.51,62.75 170.18,63.72 L 180.50 65.48 L 175.00 66.14 C171.98,66.50 166.45,66.85 162.71,66.90 C156.29,66.99 155.99,66.90 156.97,65.06 Z" fill="rgb(76,150,138)"/>
</g>
</svg>